<?xml version="1.0" encoding="UTF-8"?>
<svg version="1.1" xmlns="http://www.w3.org/2000/svg" width="1920" height="1080">
<path d="M0 0 C633.6 0 1267.2 0 1920 0 C1920 356.4 1920 712.8 1920 1080 C1286.4 1080 652.8 1080 0 1080 C0 723.6 0 367.2 0 0 Z " fill="#FEFEFE" transform="translate(0,0)"/>
<path d="M0 0 C4.65777707 15.91833702 8.91318477 31.92599861 13 48 C13.25426758 48.65838867 13.50853516 49.31677734 13.77050781 49.99511719 C14.13170099 53.15056226 12.68170441 54.94133716 11.08984375 57.63671875 C10.43677246 58.75852539 9.78370117 59.88033203 9.11083984 61.03613281 C8.38645734 62.25329337 7.66200904 63.47041476 6.9375 64.6875 C6.19861858 65.94936843 5.46116814 67.21207577 4.72509766 68.47558594 C3.59418337 70.41665649 2.46247796 72.35720488 1.32629395 74.29519653 C-2.248818 80.39636948 -5.69477725 86.56634547 -9.125 92.75 C-14.22013806 101.89554538 -19.45001572 110.95363904 -24.75048828 119.98144531 C-29.53005592 128.14259374 -34.15366602 136.38476861 -38.75219727 144.64892578 C-42.72815635 151.77628267 -46.80163998 158.83939092 -50.9375 165.875 C-56.57981859 175.47706236 -62.01402817 185.18220958 -67.39428711 194.93310547 C-72.04830902 203.34514922 -76.85590001 211.65573975 -81.73046875 219.94140625 C-86.10263001 227.39864309 -90.32390077 234.9314593 -94.5 242.5 C-99.80365862 252.11104232 -105.24418038 261.62668861 -110.80517578 271.09082031 C-115.51592901 279.12517606 -120.08017606 287.23516849 -124.61401367 295.37036133 C-128.98772497 303.21126813 -133.41496194 311.02046694 -137.875 318.8125 C-138.20836365 319.39495483 -138.54172729 319.97740967 -138.88519287 320.57751465 C-140.57873714 323.53593532 -142.27307826 326.49389866 -143.96777344 329.45166016 C-145.98350965 332.97031518 -147.99616669 336.49072392 -150.0078125 340.01171875 C-150.33740967 340.5886145 -150.66700684 341.16551025 -151.0065918 341.7598877 C-152.0044472 343.50656171 -153.00223679 345.25327331 -154 347 C-157.68090652 353.44395145 -161.36191643 359.8878318 -165.05130005 366.32693481 C-166.7432784 369.28003016 -168.43437464 372.23362989 -170.125 375.1875 C-170.45755798 375.76850464 -170.79011597 376.34950928 -171.13275146 376.94812012 C-176.42430611 386.19747828 -181.63627192 395.4896462 -186.82348633 404.79785156 C-192.67836894 415.27208232 -198.73517825 425.62669411 -204.82348633 435.96655273 C-205.58857652 437.28890928 -206.31677385 438.6335477 -207 440 C-236.04 440 -265.08 440 -295 440 C-285.30500653 422.2258453 -275.53955089 404.52038051 -265.27587891 387.06835938 C-260.19828119 378.40632313 -255.3202359 369.64009446 -250.46264648 360.85327148 C-245.2682602 351.46183727 -239.96972224 342.134728 -234.62353516 332.82910156 C-231.83115798 327.96322687 -229.05007779 323.09089666 -226.2677002 318.21929932 C-224.56291742 315.2345492 -222.85766133 312.25006958 -221.15234375 309.265625 C-220.63947311 308.36802963 -220.63947311 308.36802963 -220.11624146 307.45230103 C-218.04685996 303.83092902 -215.97634577 300.21020733 -213.90490723 296.5900116 C-212.20707345 293.6227163 -210.50971776 290.65514768 -208.8125 287.6875 C-208.47869324 287.10390717 -208.14488647 286.52031433 -207.80096436 285.91903687 C-203.29801405 278.04481277 -198.82540264 270.15404027 -194.375 262.25 C-190.03268352 254.53856426 -185.60568204 246.88178669 -181.125 239.25 C-175.42289847 229.53144889 -169.91466725 219.71517994 -164.46313477 209.85424805 C-159.26868187 200.46243452 -153.96990325 191.13504308 -148.62353516 181.82910156 C-145.49071637 176.36998817 -142.37159834 170.90303436 -139.25 165.4375 C-137.88294202 163.04419682 -136.51575084 160.65096979 -135.1484375 158.2578125 C-134.80631729 157.65900269 -134.46419708 157.06019287 -134.11170959 156.4432373 C-132.05344691 152.84139103 -129.99295295 149.24083214 -127.93057251 145.64134216 C-126.24464043 142.69881899 -124.55958372 139.75579528 -122.875 136.8125 C-122.54280457 136.23212982 -122.21060913 135.65175964 -121.86834717 135.05380249 C-117.15403356 126.81343001 -112.49667946 118.54267647 -107.875 110.25 C-102.77785402 101.10554429 -97.55001254 92.04640908 -92.24951172 83.01855469 C-87.47674222 74.86901414 -82.85914002 66.63887709 -78.26757812 58.38623047 C-73.55327156 49.93468256 -68.70645464 41.5657005 -63.79296875 33.22851562 C-63.25285156 32.31005859 -62.71273438 31.39160156 -62.15625 30.4453125 C-61.62515625 29.55360352 -61.0940625 28.66189453 -60.546875 27.74316406 C-58.94867233 24.98902143 -58.94867233 24.98902143 -57.578125 21.96777344 C-54.10273464 14.69475529 -54.10273464 14.69475529 -51.00976562 12.74609375 C-48.68074619 11.9469813 -46.42022089 11.44949686 -44 11 C-42.2268612 10.53208837 -40.45608702 10.05514489 -38.6875 9.5703125 C-36.79230287 9.08604503 -34.89644565 8.60435486 -33 8.125 C-25.01817142 6.08399035 -17.09227849 3.93287354 -9.22851562 1.47314453 C-5.94083705 0.46635542 -3.48817328 0 0 0 Z " fill="#78A083" transform="translate(1220,197)"/>
<path d="M0 0 C1.00289062 -0.00773438 2.00578125 -0.01546875 3.0390625 -0.0234375 C31.64640684 0.05048329 57.44100999 13.03961986 77.6875 32.625 C96.31352247 51.77275979 106.16454426 76.74004621 106.24023438 103.25366211 C106.2498623 105.28347003 106.28091523 107.3122289 106.3125 109.34179688 C106.54406137 137.62951447 93.87789499 163.09022722 74.5 183.125 C69.6758104 187.79357058 64.68471588 191.69274597 59 195.25 C58.08734375 195.83394531 57.1746875 196.41789063 56.234375 197.01953125 C34.35057939 210.44822401 6.40925099 216.71965399 -19 211.0625 C-21.00847326 210.48712835 -23.00848687 209.88157961 -25 209.25 C-26.25554687 208.9096875 -27.51109375 208.569375 -28.8046875 208.21875 C-43.69146866 204.08293283 -56.02602255 196.94998766 -68 187.25 C-68.70382812 186.71117187 -69.40765625 186.17234375 -70.1328125 185.6171875 C-88.02112545 171.20514589 -101.77657501 145.12955247 -104.8059082 122.48095703 C-105.25554816 117.31264263 -105.18467807 112.12138833 -105.1875 106.9375 C-105.19974609 105.76509766 -105.21199219 104.59269531 -105.22460938 103.38476562 C-105.23630702 96.40127027 -104.65291202 90.03002218 -103 83.25 C-102.80019531 82.24710938 -102.60039063 81.24421875 -102.39453125 80.2109375 C-96.36394299 53.41731716 -78.53555524 30.66694758 -55.625 16.0625 C-38.27277293 5.74551393 -20.23205953 -0.15603131 0 0 Z " fill="#78A083" transform="translate(1075,696.75)"/>
<path d="M0 0 C19.65750916 15.61603525 35.9683037 37.70378673 40.6015625 62.87890625 C41.08743622 67.14379776 41.03437088 71.03792914 40.53125 75.29296875 C39.96100008 80.59973415 40.10502333 85.79214606 40.26196289 91.12011719 C40.59978695 104.57310049 39.82873959 115.64961536 34.04296875 127.84375 C33.70555664 128.57513184 33.36814453 129.30651367 33.02050781 130.06005859 C28.47566421 139.73610991 23.16990688 147.85763553 16.04296875 155.84375 C15.25921875 156.875 14.47546875 157.90625 13.66796875 158.96875 C-5.24065009 179.67818968 -32.83861069 190.47406843 -60.359375 192.13671875 C-88.89216038 193.30731007 -115.65277009 181.89181166 -136.6640625 162.98046875 C-149.13079872 151.34941089 -158.18953777 136.84076414 -163.95703125 120.84375 C-164.20114746 120.18793945 -164.44526367 119.53212891 -164.69677734 118.85644531 C-173.60531501 93.99240544 -171.15643982 63.63368864 -159.95703125 39.84375 C-146.51254327 13.63980271 -125.16305323 -5.48989645 -97.4765625 -15.40234375 C-64.31657485 -26.01509478 -28.17636335 -20.54604038 0 0 Z " fill="#78A083" transform="translate(920.95703125,710.15625)"/>
<path d="M0 0 C27.68432836 6.0402171 27.68432836 6.0402171 38.90600586 9.40283203 C40.54208751 9.86941192 42.19938477 10.26175465 43.86157227 10.62451172 C49.86347595 12.16816596 53.42961536 13.70177533 56.92578125 18.9453125 C58.09149707 20.98460326 59.21869674 23.04625167 60.3125 25.125 C60.93584229 26.23375488 61.55918457 27.34250977 62.20141602 28.48486328 C63.51000285 30.81587075 64.80465607 33.14975448 66.08105469 35.49804688 C68.51116771 39.93284855 71.04160723 44.30491015 73.58105469 48.67773438 C75.45755376 51.90953762 77.31922444 55.14956871 79.1796875 58.390625 C83.08440427 65.16900388 87.06560033 71.90066831 91.0625 78.625 C96.62993968 87.99158763 102.15618057 97.38033425 107.63867188 106.796875 C112.26748063 114.74691941 116.91032659 122.68861231 121.5625 130.625 C121.92479706 131.24308533 122.28709412 131.86117065 122.66036987 132.49798584 C127.77355375 141.21944331 132.90705696 149.92869864 138.0559082 158.62915039 C142.472209 166.09624349 146.86411082 173.57752299 151.25 181.0625 C151.60738251 181.67236755 151.96476501 182.28223511 152.33297729 182.9105835 C155.96734009 189.11295444 159.59997133 195.31633793 163.23126221 201.52050781 C165.00786123 204.55561985 166.78506725 207.59037615 168.5625 210.625 C169.08931366 211.52457428 169.08931366 211.52457428 169.62677002 212.44232178 C174.76211141 221.20916528 179.93411181 229.95340384 185.125 238.6875 C191.11792689 248.77222069 197.00644735 258.91125135 202.85253906 269.08154297 C206.30701927 275.08514704 209.79875731 281.05793749 213.38647461 286.98291016 C217.3193249 293.49387294 221.1565783 300.06102604 225 306.625 C225.36130005 307.24201782 225.7226001 307.85903564 226.09484863 308.49475098 C227.58413469 311.03840469 229.07318744 313.58219473 230.56188965 316.12619019 C233.24991185 320.71958302 235.94053794 325.31144211 238.6328125 329.90234375 C239.01129333 330.54776123 239.38977417 331.19317871 239.77972412 331.8581543 C241.24567496 334.35796134 242.71166908 336.85774299 244.17773438 339.35748291 C245.82259349 342.16226143 247.4644871 344.96842272 249.09472656 347.78173828 C250.39423115 349.97677538 251.73698955 352.14663602 253.11621094 354.29248047 C253.7765332 355.33936035 254.43685547 356.38624023 255.1171875 357.46484375 C255.71901855 358.38773193 256.32084961 359.31062012 256.94091797 360.26147461 C258 363 258 363 257.35302734 366.03613281 C256.09863748 368.78393018 254.78317917 371.36501369 253.234375 373.95703125 C252.40462158 375.35924927 252.40462158 375.35924927 251.55810547 376.78979492 C250.96143066 377.7872876 250.36475586 378.78478027 249.75 379.8125 C244.68579314 388.38092783 239.71662709 396.99128153 234.875 405.6875 C228.66245243 416.83750784 222.3573551 427.93198949 216 439 C212.18474161 437.7282472 211.88560273 436.54933323 209.953125 433.09375 C209.36337891 432.05283203 208.77363281 431.01191406 208.16601562 429.93945312 C207.53373047 428.80443359 206.90144531 427.66941406 206.25 426.5 C204.89511267 424.10161348 203.53338672 421.70713066 202.171875 419.3125 C201.65125488 418.39398254 201.65125488 418.39398254 201.12011719 417.45690918 C197.6840497 411.4082978 194.10323197 405.45033062 190.5 399.5 C184.70621585 389.90503903 179.0620815 380.23235397 173.47998047 370.51293945 C169.05774746 362.81760759 164.57444364 355.16151918 160.04760742 347.52734375 C155.56811063 339.97094559 151.12474741 332.39373928 146.6875 324.8125 C141.09173366 315.2532953 135.46755348 305.71176443 129.8125 296.1875 C123.7041698 285.89763331 117.65365142 275.57562094 111.6328125 265.234375 C107.57978017 258.2741704 103.51052923 251.32351533 99.4375 244.375 C99.07619995 243.75857635 98.7148999 243.14215271 98.34265137 242.50704956 C93.68234767 234.55746519 89.00645598 226.617271 84.3125 218.6875 C79.93162491 211.28626583 75.57979323 203.86873298 71.25 196.4375 C66.05135923 187.51514441 60.84543791 178.59711833 55.625 169.6875 C55.09070877 168.77562927 55.09070877 168.77562927 54.54562378 167.84533691 C49.32799288 158.94341609 44.07962214 150.06022583 38.8125 141.1875 C32.70427251 130.89757179 26.65365195 120.57562186 20.6328125 110.234375 C16.9425177 103.89709348 13.23856404 97.56788792 9.53018188 91.24118042 C8.44692427 89.39109561 7.36615704 87.53957565 6.28588867 85.68774414 C2.91371615 79.91457744 -0.49202812 74.17039088 -4.00390625 68.48046875 C-4.61741943 67.4764502 -5.23093262 66.47243164 -5.86303711 65.43798828 C-7.00471505 63.57479266 -8.15971261 61.71966739 -9.33032227 59.87451172 C-13.00554646 53.84528018 -13.00554646 53.84528018 -12.98046875 50.0234375 C-12.65691406 49.02570313 -12.33335937 48.02796875 -12 47 C-11.64006971 45.45143453 -11.29088293 43.90035404 -10.94921875 42.34765625 C-10.53138522 40.58528578 -10.11068384 38.8235934 -9.6875 37.0625 C-9.46529785 36.1338916 -9.2430957 35.2052832 -9.01416016 34.24853516 C-7.13781605 26.46244584 -5.11885377 18.72385583 -3 11 C-2.69835937 9.89011719 -2.39671875 8.78023437 -2.0859375 7.63671875 C-1.39352877 5.09033711 -0.69835309 2.54475634 0 0 Z " fill="#78A083" transform="translate(699,197)"/>
<path d="M0 0 C15.42701652 8.21438542 26.58446323 20.16992221 32.74609375 36.63671875 C36.99175198 52.08053231 35.36084678 67.5597161 28.30859375 81.76171875 C27.85226562 82.70273437 27.3959375 83.64375 26.92578125 84.61328125 C19.48791346 98.34146008 6.71918353 107.48350359 -7.96484375 112.03515625 C-23.6421412 116.2127742 -39.58334024 114.93442885 -53.77734375 107.046875 C-56.49842051 105.37994192 -59.10109327 103.62377875 -61.69140625 101.76171875 C-62.72265625 101.03984375 -63.75390625 100.31796875 -64.81640625 99.57421875 C-72.96310431 92.34845177 -78.15333153 82.90704144 -81.69140625 72.76171875 C-82.05621094 71.89546875 -82.42101562 71.02921875 -82.796875 70.13671875 C-85.97309737 58.15306755 -85.35346152 41.81937962 -79.69140625 30.76171875 C-79.170625 29.74078125 -78.64984375 28.71984375 -78.11328125 27.66796875 C-63.10511681 0.35581364 -29.35315274 -13.74202465 0 0 Z " fill="#FEFEFE" transform="translate(1100.69140625,741.23828125)"/>
<path d="M0 0 C2.43669828 1.64368996 4.72846507 3.37497424 7.015625 5.21875 C8.0675 5.981875 9.119375 6.745 10.203125 7.53125 C20.12884775 17.01582952 27.75543889 31.11219976 28.31640625 44.953125 C28.53806987 63.80198324 24.79447499 78.94920611 11.33203125 93.00390625 C-2.12890407 105.87464879 -16.6686814 110.77703329 -35.11987305 110.70849609 C-51.81052904 110.22080641 -65.16803285 101.96634609 -76.5390625 90.109375 C-88.40043425 76.08794514 -91.05185006 58.95069677 -89.984375 41.21875 C-87.95752807 26.01739804 -79.10922882 12.74919833 -67.171875 3.40625 C-47.14962227 -10.90258213 -21.23973782 -12.677121 0 0 Z " fill="#FEFEFE" transform="translate(888.984375,744.78125)"/>
<path d="M0 0 C34.65 0 69.3 0 105 0 C105.33 9.631875 105.66 19.26375 106 29.1875 C106.14566406 32.20156982 106.29132813 35.21563965 106.44140625 38.32104492 C107.01158952 58.58152961 107.01158952 58.58152961 101.61328125 64.58056641 C98.35991911 67.46086322 94.84687542 69.62006478 91.05239868 71.71083069 C78.40014889 79.65806448 70.84712131 95.24460617 64 108 C62.02 108 60.04 108 58 108 C57.525625 106.845 57.05125 105.69 56.5625 104.5 C50.7366897 91.54470157 43.63296539 80.42609877 34 70 C33.34515625 69.26394531 32.6903125 68.52789063 32.015625 67.76953125 C28.14302949 63.62386811 23.83311026 60.24936435 19.25 56.9375 C18.7139917 56.54989502 18.1779834 56.16229004 17.62573242 55.76293945 C11.93492099 51.77164636 6.06559829 48.53826567 0 45 C0 30.15 0 15.3 0 0 Z " fill="#79A184" transform="translate(907,646)"/>
</svg>
