<svg version="1.1" id="Layer_1" xmlns="http://www.w3.org/2000/svg" xmlns:xlink="http://www.w3.org/1999/xlink" x="0px" y="0px"
	 width="100%" viewBox="0 0 500 500" enable-background="new 0 0 500 500" xml:space="preserve">
<path fill="#000000" opacity="1.000000" stroke="none" 
	d="
M333.000000,501.000000 
	C222.000031,501.000000 111.500053,501.000000 1.000059,501.000000 
	C1.000040,334.333405 1.000040,167.666794 1.000020,1.000149 
	C167.666565,1.000099 334.333130,1.000099 500.999756,1.000050 
	C500.999847,167.666519 500.999847,334.333038 500.999939,500.999786 
	C445.166656,501.000000 389.333344,501.000000 333.000000,501.000000 
M193.908447,329.994019 
	C201.942902,329.941803 209.977356,329.889587 218.549973,329.930664 
	C218.728928,329.629242 218.907898,329.327820 220.012192,328.978424 
	C239.165543,328.978821 258.320526,328.846161 277.471039,329.079742 
	C281.873383,329.133423 283.102509,327.890289 283.089294,323.482025 
	C282.939514,273.351074 283.097382,223.219025 282.852081,173.088837 
	C282.822266,166.994431 284.302765,162.601578 288.849762,158.429794 
	C295.505310,152.323486 298.660248,144.325562 299.055511,135.157562 
	C299.644775,121.489906 294.513245,110.466133 283.749634,102.368210 
	C272.347839,93.790146 257.273743,93.422020 245.847687,101.829956 
	C241.209641,105.242889 236.894348,107.253349 230.850693,107.186684 
	C199.042648,106.835747 167.228653,107.019684 135.416733,107.031517 
	C133.989029,107.032043 132.561356,107.164124 130.995667,107.241783 
	C130.995667,150.255295 130.995544,192.879105 130.995697,235.502930 
	C130.995804,264.983093 131.063675,294.463593 130.916046,323.943024 
	C130.896378,327.872742 131.955063,329.206268 135.988785,329.063477 
	C144.295486,328.769409 152.619904,328.969574 160.937042,328.978088 
	C171.262985,328.988678 181.588913,329.011078 192.053696,329.552795 
	C192.362549,329.647675 192.671402,329.742523 193.908447,329.994019 
z"/>
<path fill="#FBFDFC" opacity="1.000000" stroke="none" 
	d="
M191.914856,329.028351 
	C181.588913,329.011078 171.262985,328.988678 160.937042,328.978088 
	C152.619904,328.969574 144.295486,328.769409 135.988785,329.063477 
	C131.955063,329.206268 130.896378,327.872742 130.916046,323.943024 
	C131.063675,294.463593 130.995804,264.983093 130.995697,235.502930 
	C130.995544,192.879105 130.995667,150.255295 130.995667,107.241783 
	C132.561356,107.164124 133.989029,107.032043 135.416733,107.031517 
	C167.228653,107.019684 199.042648,106.835747 230.850693,107.186684 
	C236.894348,107.253349 241.209641,105.242889 245.847687,101.829956 
	C257.273743,93.422020 272.347839,93.790146 283.749634,102.368210 
	C294.513245,110.466133 299.644775,121.489906 299.055511,135.157562 
	C298.660248,144.325562 295.505310,152.323486 288.849762,158.429794 
	C284.302765,162.601578 282.822266,166.994431 282.852081,173.088837 
	C283.097382,223.219025 282.939514,273.351074 283.089294,323.482025 
	C283.102509,327.890289 281.873383,329.133423 277.471039,329.079742 
	C258.320526,328.846161 239.165543,328.978821 219.330811,329.079956 
	C218.363174,329.328491 218.150635,329.547119 218.011810,329.837402 
	C209.977356,329.889587 201.942902,329.941803 193.315491,329.724121 
	C192.496017,329.231323 192.226776,329.089355 191.914856,329.028351 
M245.499985,321.764191 
	C255.259583,321.764191 265.019196,321.764191 274.871552,321.764191 
	C274.871552,269.834595 274.871552,218.728973 274.871552,167.376755 
	C259.279846,171.467392 246.402863,167.418396 237.351929,154.447647 
	C228.620560,141.934875 228.431793,128.227020 235.282898,114.392166 
	C202.859604,114.392166 171.277908,114.392166 139.453293,114.392166 
	C139.350159,116.178162 139.191788,117.642891 139.191559,119.107651 
	C139.181000,184.928391 139.222015,250.749222 139.098770,316.569733 
	C139.090805,320.823883 140.465027,321.860962 144.519455,321.843750 
	C177.845810,321.702209 211.173019,321.763855 245.499985,321.764191 
M241.474106,136.844955 
	C243.475891,148.969604 251.838501,157.488770 262.435638,158.198914 
	C276.186462,159.120392 286.458832,149.391968 287.333923,134.204086 
	C287.877411,124.771355 284.517670,116.667267 276.507996,111.433914 
	C269.336029,106.747887 261.305420,106.254448 253.761887,110.666191 
	C244.189713,116.264366 240.500916,125.113152 241.474106,136.844955 
z"/>
<path fill="#FFFFFF" opacity="1.000000" stroke="none" 
	d="
M191.984283,329.290588 
	C192.226776,329.089355 192.496017,329.231323 192.851410,329.645813 
	C192.671402,329.742523 192.362549,329.647675 191.984283,329.290588 
z"/>
<path fill="#FFFFFF" opacity="1.000000" stroke="none" 
	d="
M218.280884,329.884033 
	C218.150635,329.547119 218.363174,329.328491 218.868149,329.103943 
	C218.907898,329.327820 218.728928,329.629242 218.280884,329.884033 
z"/>
<path fill="#7AA285" opacity="1.000000" stroke="none" 
	d="
M244.999969,321.764038 
	C211.173019,321.763855 177.845810,321.702209 144.519455,321.843750 
	C140.465027,321.860962 139.090805,320.823883 139.098770,316.569733 
	C139.222015,250.749222 139.181000,184.928391 139.191559,119.107651 
	C139.191788,117.642891 139.350159,116.178162 139.453293,114.392166 
	C171.277908,114.392166 202.859604,114.392166 235.282898,114.392166 
	C228.431793,128.227020 228.620560,141.934875 237.351929,154.447647 
	C246.402863,167.418396 259.279846,171.467392 274.871552,167.376755 
	C274.871552,218.728973 274.871552,269.834595 274.871552,321.764191 
	C265.019196,321.764191 255.259583,321.764191 244.999969,321.764038 
M221.500000,219.915192 
	C225.821304,219.915207 230.143311,219.963272 234.463730,219.901413 
	C238.595184,219.842270 242.725006,219.668793 246.855545,219.545563 
	C246.843063,219.017242 246.830582,218.488937 246.818100,217.960617 
	C220.291336,217.960617 193.764572,217.960617 167.237808,217.960617 
	C167.228241,218.612091 167.218658,219.263580 167.209091,219.915054 
	C184.972733,219.915054 202.736359,219.915054 221.500000,219.915192 
M196.500000,189.003036 
	C213.242569,189.003036 229.985138,189.003036 246.727707,189.003036 
	C246.717300,188.531143 246.706879,188.059265 246.696472,187.587372 
	C220.265274,187.587372 193.834061,187.587372 167.402863,187.587372 
	C167.396957,188.059265 167.391052,188.531158 167.385147,189.003052 
	C176.756775,189.003052 186.128387,189.003052 196.500000,189.003036 
M223.499969,208.051987 
	C204.805023,208.051987 186.110077,208.051987 167.415131,208.051987 
	C167.427017,208.539917 167.438919,209.027847 167.450806,209.515778 
	C193.837952,209.515778 220.225098,209.515778 246.612244,209.515778 
	C246.619156,209.027893 246.626083,208.539993 246.632996,208.052109 
	C239.255310,208.052109 231.877625,208.052109 223.499969,208.051987 
M206.500015,197.733902 
	C193.587875,197.733902 180.675720,197.733902 167.763580,197.733902 
	C167.771667,198.075745 167.779770,198.417603 167.787872,198.759445 
	C193.952286,198.759445 220.116699,198.759445 246.281128,198.759445 
	C246.282181,198.417450 246.283234,198.075470 246.284271,197.733475 
	C233.356201,197.733475 220.428116,197.733475 206.500015,197.733902 
M182.505493,228.791992 
	C177.573883,228.791992 172.642258,228.791992 167.710648,228.791992 
	C167.715378,229.088821 167.720123,229.385635 167.724854,229.682465 
	C193.893234,229.682465 220.061630,229.682465 246.230011,229.682465 
	C246.230759,229.385544 246.231506,229.088608 246.232254,228.791687 
	C225.322632,228.791687 204.412994,228.791687 182.505493,228.791992 
z"/>
<path fill="#7BA185" opacity="1.000000" stroke="none" 
	d="
M241.401978,136.422577 
	C240.500916,125.113152 244.189713,116.264366 253.761887,110.666191 
	C261.305420,106.254448 269.336029,106.747887 276.507996,111.433914 
	C284.517670,116.667267 287.877411,124.771355 287.333923,134.204086 
	C286.458832,149.391968 276.186462,159.120392 262.435638,158.198914 
	C251.838501,157.488770 243.475891,148.969604 241.401978,136.422577 
M264.460022,137.689209 
	C265.960297,135.937485 267.460602,134.185776 268.960907,132.434052 
	C268.006683,133.555054 267.052460,134.676056 266.098206,135.797058 
	C265.011566,133.787048 263.924896,131.777039 262.838257,129.767029 
	C264.125671,130.059219 265.413086,130.351425 266.700531,130.643616 
	C265.185822,132.208099 263.671112,133.772568 262.156372,135.337051 
	C261.504486,134.444489 260.852600,133.551926 260.200714,132.659363 
	C261.388733,134.262543 262.576782,135.865707 264.460022,137.689209 
z"/>
<path fill="#DBF0E2" opacity="1.000000" stroke="none" 
	d="
M221.000000,219.915131 
	C202.736359,219.915054 184.972733,219.915054 167.209091,219.915054 
	C167.218658,219.263580 167.228241,218.612091 167.237808,217.960617 
	C193.764572,217.960617 220.291336,217.960617 246.818100,217.960617 
	C246.830582,218.488937 246.843063,219.017242 246.855545,219.545563 
	C242.725006,219.668793 238.595184,219.842270 234.463730,219.901413 
	C230.143311,219.963272 225.821304,219.915207 221.000000,219.915131 
z"/>
<path fill="#F8FFF9" opacity="1.000000" stroke="none" 
	d="
M196.000000,189.003052 
	C186.128387,189.003052 176.756775,189.003052 167.385147,189.003052 
	C167.391052,188.531158 167.396957,188.059265 167.402863,187.587372 
	C193.834061,187.587372 220.265274,187.587372 246.696472,187.587372 
	C246.706879,188.059265 246.717300,188.531143 246.727707,189.003036 
	C229.985138,189.003036 213.242569,189.003036 196.000000,189.003052 
z"/>
<path fill="#E5F6EA" opacity="1.000000" stroke="none" 
	d="
M223.999954,208.052048 
	C231.877625,208.052109 239.255310,208.052109 246.632996,208.052109 
	C246.626083,208.539993 246.619156,209.027893 246.612244,209.515778 
	C220.225098,209.515778 193.837952,209.515778 167.450806,209.515778 
	C167.438919,209.027847 167.427017,208.539917 167.415131,208.051987 
	C186.110077,208.051987 204.805023,208.051987 223.999954,208.052048 
z"/>
<path fill="#F2FFF6" opacity="1.000000" stroke="none" 
	d="
M207.000031,197.733688 
	C220.428116,197.733475 233.356201,197.733475 246.284271,197.733475 
	C246.283234,198.075470 246.282181,198.417450 246.281128,198.759445 
	C220.116699,198.759445 193.952286,198.759445 167.787872,198.759445 
	C167.779770,198.417603 167.771667,198.075745 167.763580,197.733902 
	C180.675720,197.733902 193.587875,197.733902 207.000031,197.733688 
z"/>
<path fill="#F0FFF5" opacity="1.000000" stroke="none" 
	d="
M183.004425,228.791840 
	C204.412994,228.791687 225.322632,228.791687 246.232254,228.791687 
	C246.231506,229.088608 246.230759,229.385544 246.230011,229.682465 
	C220.061630,229.682465 193.893234,229.682465 167.724854,229.682465 
	C167.720123,229.385635 167.715378,229.088821 167.710648,228.791992 
	C172.642258,228.791992 177.573883,228.791992 183.004425,228.791840 
z"/>
<path fill="#E2F7E7" opacity="1.000000" stroke="none" 
	d="
M264.112427,137.579041 
	C262.576782,135.865707 261.388733,134.262543 260.200714,132.659363 
	C260.852600,133.551926 261.504486,134.444489 262.156372,135.337051 
	C263.671112,133.772568 265.185822,132.208099 266.700531,130.643616 
	C265.413086,130.351425 264.125671,130.059219 262.838257,129.767029 
	C263.924896,131.777039 265.011566,133.787048 266.098206,135.797058 
	C267.052460,134.676056 268.006683,133.555054 268.960907,132.434052 
	C267.460602,134.185776 265.960297,135.937485 264.112427,137.579041 
z"/>
</svg>